<svg width="236" height="60" viewBox="0 0 236 60" fill="none" xmlns="http://www.w3.org/2000/svg">
<g clip-path="url(#clip0_108_2)">
<path d="M31.8612 0C31.8826 0 31.8612 0.086393 31.8184 0.238108C31.8184 0.238108 28.7229 9.18716 29.5015 12.2278C29.769 13.3193 30.8392 14.0989 32.5542 14.6215C34.2691 15.1441 36.5218 15.3948 39.3444 15.4644C45.011 15.6076 66.3665 15.7467 66.3665 15.7467C66.4649 15.7423 66.5636 15.7465 66.6608 15.7594C66.6929 15.7594 66.5939 15.7825 66.3691 15.7952C66.3691 15.7952 37.2068 17.5905 32.2679 18.446C29.0895 19.0023 25.5846 20.0179 22.6497 23.6C19.7147 27.1822 14.6474 33.038 16.9857 36.0322C17.3385 36.5318 17.9001 36.9197 18.5749 37.13C19.1473 37.2856 19.7462 37.3723 20.3514 37.3871C20.8041 37.4107 21.258 37.3585 21.6832 37.234C22.1084 37.1094 22.4952 36.9153 22.8182 36.6644C24.2583 35.5142 25.481 34.2071 26.4488 32.783C26.5398 32.6418 26.5986 32.5723 26.62 32.5723C26.6414 32.5723 26.62 32.6587 26.5719 32.8104C26.5719 32.8104 25.7532 34.9871 26.0635 36.7634C26.2053 37.5768 26.818 38.1984 27.9765 38.5524C28.5112 38.7069 29.0701 38.8033 29.6379 38.8389C31.9308 39.0159 35.9787 39.1676 35.9787 39.1676C36.0774 39.1684 36.1758 39.1755 36.273 39.1887C36.3025 39.1887 36.2035 39.2077 35.9787 39.2119C35.9787 39.2119 29.7449 39.351 27.5992 40.0548C24.9719 40.9124 23.5192 42.3916 20.9106 46.313C18.6579 49.7497 12.4401 58.9264 12.4401 58.9264C12.4008 59.0023 12.3476 59.0733 12.2823 59.1371C12.3039 59.0592 12.339 58.9841 12.3866 58.9137C12.3866 58.9137 19.2625 46.471 20.0652 44.1827C20.6966 42.4105 19.5889 41.6162 19.0244 41.26C18.4729 40.9104 17.7984 40.7027 17.0921 40.665C16.3857 40.6273 15.6818 40.7615 15.0755 41.0493C13.8662 41.6379 12.8367 42.4294 12.0602 43.3672C8.1086 47.8617 0.167874 58.9222 0.167874 58.9222C0.0715579 59.057 0.012698 59.1329 0.00199626 59.1202C-0.00870553 59.1076 0.0233998 59.0423 0.103663 58.8969C0.103663 58.8969 13.1786 35.6024 13.5933 34.7384C14.1284 33.6554 20.4745 23.1049 18.888 20.4962C17.9248 18.9201 16.6941 18.0709 15.0166 17.561C13.7492 17.2136 12.4332 16.9879 11.0971 16.8888C7.16149 16.4969 0.499629 16.0459 0.499629 16.0459C0.402432 16.0412 0.305835 16.0306 0.210681 16.0143C0.167874 16.0017 0.266866 15.9911 0.502305 15.9911C0.502305 15.9911 17.1917 15.8457 20.0331 14.6679C21.1996 14.1832 23.3961 13.0327 25.7023 9.73291C26.8448 8.09566 31.6927 0.210715 31.6927 0.210715C31.7818 0.0702382 31.838 0 31.8612 0Z" fill="#FD2026"/>
<path d="M49.544 41.2409V45.9609H45.928V34.0569H59.592V36.5209H49.544V38.7769H58.824V41.2409H53.864H49.544ZM64.3878 45.9609H60.7718V34.0569H64.3878V45.9609ZM74.0481 43.5449L79.1361 34.0569H82.9761L76.5921 45.9609H71.5041L65.1361 34.0569H68.9601L74.0481 43.5449ZM97.3889 45.9609H83.7249V34.0569H97.3889V36.5209H87.3409V38.7769H96.6209V41.2409H91.6609H87.3409V43.4969H97.3889V45.9609ZM111.607 45.9609V45.9769H107.991V34.0569H111.607H117.479C117.687 34.0569 117.895 34.0729 118.103 34.0729C118.151 34.0729 118.199 34.0889 118.247 34.0889C118.439 34.0889 118.647 34.1049 118.823 34.1369C118.855 34.1369 118.887 34.1369 118.903 34.1369C119.495 34.2169 120.039 34.3289 120.519 34.5049C120.551 34.5049 120.583 34.5209 120.615 34.5369C120.759 34.5849 120.887 34.6329 121.031 34.6969C121.063 34.7129 121.095 34.7289 121.127 34.7449C121.703 35.0169 122.167 35.3849 122.535 35.8329C122.551 35.8489 122.583 35.8809 122.599 35.9129C122.679 36.0089 122.743 36.1209 122.823 36.2329C122.839 36.2489 122.839 36.2649 122.855 36.2969C123.062 36.6649 123.222 37.0649 123.319 37.5129C123.319 37.5449 123.335 37.5769 123.335 37.6089C123.367 37.7529 123.383 37.8969 123.399 38.0409C123.399 38.0889 123.415 38.1209 123.415 38.1689C123.431 38.3129 123.431 38.4729 123.431 38.6329L123.415 41.7209C123.415 41.7369 123.415 41.7369 123.415 41.7529C123.415 41.9289 123.383 42.1049 123.367 42.2809C123.351 42.2969 123.351 42.3129 123.351 42.3289C123.319 42.5049 123.287 42.6489 123.239 42.8089C123.239 42.8409 123.222 42.8569 123.222 42.8889C123.175 43.0329 123.127 43.1609 123.079 43.3049C123.062 43.3369 123.047 43.3689 123.031 43.4009C122.967 43.5289 122.903 43.6409 122.839 43.7529C122.823 43.8009 122.791 43.8329 122.759 43.8809C122.695 43.9769 122.631 44.0729 122.567 44.1689C122.519 44.2169 122.471 44.2649 122.423 44.3289C122.359 44.3929 122.295 44.4729 122.215 44.5369C122.151 44.6009 122.055 44.6809 121.975 44.7449C121.927 44.7769 121.879 44.8249 121.831 44.8569C120.791 45.6249 119.255 45.9929 117.255 45.9609H111.607ZM116.647 36.8569H111.607V43.1609H116.535C117.591 43.1769 118.407 42.9849 118.951 42.5849C118.983 42.5529 119.015 42.5369 119.031 42.5209C119.079 42.4889 119.127 42.4409 119.159 42.4089C119.207 42.3769 119.239 42.3289 119.271 42.2969C119.287 42.2649 119.319 42.2329 119.351 42.2169C119.383 42.1689 119.415 42.1049 119.447 42.0569C119.463 42.0409 119.479 42.0089 119.495 41.9929C119.527 41.9289 119.559 41.8649 119.591 41.8009C119.607 41.7849 119.607 41.7689 119.623 41.7529C119.639 41.6889 119.671 41.6089 119.703 41.5289C119.703 41.5129 119.703 41.5129 119.703 41.4969C119.735 41.4169 119.751 41.3209 119.767 41.2409C119.767 41.2249 119.767 41.2249 119.767 41.2089C119.783 41.1129 119.799 41.0329 119.799 40.9209L119.815 39.2889C119.815 39.1929 119.799 39.1129 119.799 39.0329C119.799 39.0009 119.799 38.9849 119.783 38.9689C119.783 38.8889 119.767 38.8089 119.751 38.7289C119.751 38.7129 119.751 38.6969 119.751 38.6809C119.703 38.4409 119.607 38.2329 119.495 38.0409C119.495 38.0249 119.495 38.0089 119.479 38.0089C119.447 37.9449 119.399 37.8809 119.367 37.8329C119.351 37.8169 119.335 37.8009 119.335 37.7849C119.143 37.5609 118.887 37.3689 118.583 37.2249C118.567 37.2089 118.551 37.2089 118.535 37.1929C118.455 37.1609 118.391 37.1289 118.311 37.0969C118.295 37.0969 118.279 37.0969 118.263 37.0809C118.007 37.0009 117.719 36.9369 117.399 36.9049C117.399 36.9049 117.383 36.8889 117.367 36.8889C117.271 36.8889 117.159 36.8729 117.062 36.8729C117.031 36.8729 116.999 36.8729 116.983 36.8569C116.871 36.8569 116.759 36.8569 116.647 36.8569ZM124.624 38.3929C124.624 38.3609 124.624 38.3289 124.624 38.3129C124.608 38.2009 124.608 38.0889 124.608 37.9769V34.0569H127.792V37.4009C127.792 37.4489 127.792 37.4969 127.792 37.5449C127.792 37.5609 127.792 37.5609 127.792 37.5769C127.808 37.6249 127.808 37.6729 127.824 37.7049C127.824 37.7209 127.824 37.7209 127.824 37.7369C127.856 37.8649 127.888 37.9929 127.952 38.0889C127.968 38.1049 127.968 38.1049 127.968 38.1049C127.984 38.1369 128.016 38.1689 128.032 38.2009C128.032 38.2169 128.048 38.2169 128.048 38.2329C128.16 38.3609 128.304 38.4569 128.464 38.5529C128.48 38.5529 128.48 38.5529 128.496 38.5529C128.528 38.5849 128.576 38.6009 128.624 38.6169H128.64C128.784 38.6649 128.944 38.6969 129.12 38.7289H129.136C129.2 38.7289 129.248 38.7449 129.312 38.7449C129.328 38.7449 129.344 38.7449 129.36 38.7449C129.408 38.7449 129.472 38.7449 129.536 38.7449H130.048H136.272V34.0569H139.488V39.8169H139.472L139.488 42.7289C139.488 42.8409 139.472 42.9529 139.472 43.0649C139.456 43.0969 139.456 43.1289 139.456 43.1449C139.44 43.2569 139.424 43.3529 139.408 43.4649C139.408 43.4809 139.408 43.4969 139.392 43.5129C139.328 43.8329 139.216 44.1209 139.072 44.3929C139.072 44.4089 139.056 44.4249 139.04 44.4249C138.992 44.5049 138.944 44.5849 138.896 44.6649C138.88 44.6809 138.864 44.6969 138.848 44.7129C138.592 45.0329 138.256 45.2889 137.856 45.4809C137.824 45.4969 137.808 45.4969 137.776 45.5129C137.68 45.5609 137.584 45.5929 137.488 45.6409C137.472 45.6409 137.44 45.6409 137.424 45.6569C137.088 45.7689 136.704 45.8489 136.288 45.9129C136.256 45.9129 136.24 45.9129 136.224 45.9129C136.096 45.9289 135.952 45.9449 135.808 45.9449C135.776 45.9449 135.744 45.9449 135.712 45.9449C135.568 45.9609 135.424 45.9609 135.264 45.9609H125.04V43.5129H134.032H134.544C134.608 43.5129 134.672 43.4969 134.72 43.4969C134.736 43.4969 134.752 43.4969 134.768 43.4969C134.832 43.4969 134.88 43.4969 134.944 43.4809H134.96C135.136 43.4649 135.296 43.4329 135.44 43.3689H135.456C135.504 43.3529 135.552 43.3369 135.584 43.3209C135.6 43.3209 135.6 43.3049 135.616 43.3049C135.792 43.2249 135.92 43.1129 136.032 42.9849L136.048 42.9689C136.064 42.9369 136.096 42.9049 136.112 42.8729C136.112 42.8569 136.112 42.8569 136.128 42.8569C136.192 42.7449 136.224 42.6169 136.256 42.4889C136.256 42.4889 136.256 42.4729 136.272 42.4729C136.272 42.4249 136.272 42.3769 136.288 42.3289C136.288 42.3289 136.288 42.3129 136.288 42.2969C136.288 42.2489 136.288 42.2169 136.288 42.1689V41.2089H128.816C128.656 41.2089 128.512 41.1929 128.368 41.1929C128.336 41.1929 128.304 41.1929 128.272 41.1929C128.128 41.1769 127.984 41.1769 127.856 41.1609C127.84 41.1449 127.824 41.1449 127.792 41.1449C127.376 41.0969 126.992 41.0169 126.656 40.8889C126.64 40.8889 126.624 40.8889 126.592 40.8729C126.496 40.8409 126.4 40.7929 126.304 40.7609C126.272 40.7449 126.256 40.7289 126.224 40.7129C125.824 40.5209 125.488 40.2649 125.232 39.9609C125.216 39.9449 125.2 39.9129 125.184 39.8969C125.136 39.8329 125.088 39.7529 125.04 39.6729C125.024 39.6569 125.024 39.6409 125.008 39.6249C124.864 39.3689 124.752 39.0809 124.688 38.7609C124.672 38.7449 124.672 38.7289 124.672 38.6969C124.656 38.6009 124.64 38.5049 124.624 38.3929ZM154.408 44.2489V34.0569H158.04V45.9609H154.408H151.72L144.872 35.7689V45.9609H141.256V34.0569H147.56L154.408 44.2489ZM163.768 43.8009L162.6 45.9609H158.776L165.144 34.0569H170.232L176.616 45.9609H172.776L171.608 43.8009H163.768ZM167.688 36.4729L165.08 41.3369H170.296L167.688 36.4729ZM190.806 34.0569H196.63V45.9609H193.014V37.1289L188.902 44.7769L188.278 45.9609H186.982H185.702L185.062 44.7769L180.966 37.1289V45.9609H177.35V34.0569H183.158L186.982 41.1929L190.806 34.0569ZM202.122 45.9609H198.506V34.0569H202.122V45.9609ZM203.639 41.7529C203.639 41.7369 203.639 41.7369 203.639 41.7209V38.6329C203.639 38.4729 203.639 38.3129 203.655 38.1689C203.655 38.1209 203.655 38.0889 203.671 38.0409C203.687 37.8969 203.703 37.7529 203.735 37.6089C203.735 37.5769 203.735 37.5449 203.751 37.5129C203.847 37.0649 203.991 36.6649 204.215 36.2969C204.215 36.2649 204.231 36.2489 204.247 36.2329C204.311 36.1209 204.391 36.0089 204.471 35.9129C204.487 35.8809 204.519 35.8489 204.535 35.8329C204.903 35.3849 205.367 35.0169 205.943 34.7449C205.975 34.7289 206.007 34.7129 206.039 34.6969C206.167 34.6329 206.311 34.5849 206.455 34.5369C206.487 34.5209 206.519 34.5049 206.551 34.5049C207.031 34.3289 207.559 34.2169 208.167 34.1369C208.183 34.1369 208.215 34.1369 208.231 34.1369C208.423 34.1049 208.615 34.0889 208.823 34.0889C208.871 34.0889 208.919 34.0729 208.967 34.0729C209.175 34.0729 209.383 34.0569 209.591 34.0569H213.303C215.303 34.0409 216.839 34.4089 217.879 35.1609C217.927 35.1929 217.975 35.2409 218.023 35.2729C218.103 35.3529 218.183 35.4169 218.263 35.4969C218.343 35.5609 218.391 35.6249 218.455 35.7049C218.503 35.7529 218.567 35.8009 218.599 35.8649C218.679 35.9449 218.743 36.0409 218.807 36.1369C218.839 36.1849 218.871 36.2329 218.887 36.2649C218.951 36.3769 219.015 36.5049 219.062 36.6169C219.079 36.6489 219.095 36.6969 219.111 36.7289C219.175 36.8569 219.222 37.0009 219.271 37.1449C219.271 37.1609 219.287 37.1929 219.287 37.2089C219.335 37.3689 219.367 37.5289 219.399 37.6889C219.399 37.7049 219.399 37.7209 219.399 37.7529C219.431 37.9129 219.447 38.0889 219.463 38.2809V38.2969V38.7769H215.815C215.799 38.6969 215.783 38.6169 215.751 38.5209C215.751 38.5209 215.751 38.5049 215.735 38.4889C215.719 38.4089 215.687 38.3449 215.655 38.2649C215.655 38.2489 215.639 38.2329 215.639 38.2169C215.607 38.1529 215.575 38.0889 215.543 38.0249C215.527 38.0089 215.511 37.9769 215.495 37.9609C215.463 37.9129 215.431 37.8649 215.383 37.8169C215.367 37.7849 215.335 37.7529 215.319 37.7209C215.287 37.6889 215.255 37.6569 215.207 37.6089C215.175 37.5769 215.127 37.5449 215.079 37.4969C215.047 37.4809 215.031 37.4649 214.999 37.4329C214.455 37.0329 213.639 36.8409 212.567 36.8569H210.423C210.311 36.8569 210.199 36.8569 210.087 36.8729C210.055 36.8729 210.039 36.8729 210.007 36.8729C209.911 36.8729 209.799 36.8889 209.703 36.8889C209.687 36.8889 209.671 36.9049 209.655 36.9049C209.335 36.9369 209.063 37.0009 208.807 37.0969C208.791 37.0969 208.775 37.0969 208.759 37.0969C208.679 37.1289 208.599 37.1609 208.535 37.1929C208.519 37.2089 208.503 37.2089 208.487 37.2249C208.183 37.3689 207.927 37.5609 207.735 37.7849C207.719 37.8009 207.719 37.8169 207.703 37.8329C207.655 37.8969 207.623 37.9449 207.591 38.0089C207.575 38.0089 207.575 38.0249 207.559 38.0409C207.447 38.2329 207.367 38.4569 207.319 38.6969C207.319 38.6969 207.319 38.7129 207.303 38.7289C207.286 38.8089 207.286 38.8889 207.271 38.9689C207.271 38.9849 207.271 39.0169 207.271 39.0329C207.271 39.1129 207.255 39.1929 207.255 39.2889L207.271 40.9209C207.271 40.9209 207.271 40.9209 207.271 40.9369C207.271 41.0329 207.286 41.1129 207.303 41.2089C207.303 41.2249 207.303 41.2249 207.303 41.2409C207.319 41.3209 207.335 41.4169 207.351 41.4969C207.367 41.5129 207.367 41.5289 207.367 41.5289C207.399 41.6089 207.415 41.6889 207.447 41.7529C207.463 41.7689 207.463 41.7849 207.479 41.8009C207.511 41.8649 207.527 41.9289 207.575 41.9929C207.591 42.0089 207.607 42.0409 207.623 42.0569C207.655 42.1049 207.687 42.1689 207.719 42.2169C207.751 42.2329 207.766 42.2649 207.799 42.2969C207.831 42.3289 207.863 42.3769 207.895 42.4089C207.943 42.4409 207.991 42.4889 208.039 42.5209C208.055 42.5369 208.087 42.5689 208.103 42.5849C208.663 42.9849 209.479 43.1769 210.535 43.1609H212.695C212.807 43.1609 212.919 43.1609 213.031 43.1609C213.047 43.1609 213.079 43.1609 213.095 43.1449C213.207 43.1449 213.319 43.1449 213.415 43.1289C213.431 43.1289 213.431 43.1289 213.447 43.1289C213.767 43.0809 214.055 43.0169 214.311 42.9369C214.327 42.9209 214.343 42.9209 214.359 42.9209C214.439 42.8889 214.503 42.8569 214.583 42.8249C214.599 42.8249 214.615 42.8089 214.631 42.8089C214.935 42.6489 215.191 42.4569 215.383 42.2329C215.383 42.2169 215.399 42.2009 215.415 42.1849C215.447 42.1369 215.495 42.0729 215.527 42.0089C215.527 42.0089 215.543 41.9929 215.543 41.9769C215.655 41.7849 215.735 41.5769 215.799 41.3369C215.799 41.3209 215.799 41.3049 215.799 41.2889C215.799 41.2729 215.799 41.2569 215.815 41.2409H219.479V41.3849C219.479 41.5449 219.463 41.7049 219.463 41.8649C219.447 41.8969 219.447 41.9449 219.447 41.9769C219.431 42.1369 219.415 42.2809 219.383 42.4089C219.383 42.4409 219.367 42.4729 219.367 42.5049C219.271 42.9529 219.111 43.3689 218.903 43.7209C218.887 43.7529 218.871 43.7689 218.871 43.8009C218.791 43.8969 218.727 44.0089 218.647 44.1209C218.615 44.1369 218.599 44.1689 218.583 44.2009C218.215 44.6329 217.751 45.0009 217.175 45.2729C217.143 45.2889 217.111 45.3049 217.079 45.3209C216.935 45.3849 216.807 45.4329 216.647 45.4969C216.631 45.4969 216.599 45.5129 216.567 45.5289C216.087 45.6889 215.543 45.8009 214.951 45.8809C214.919 45.8809 214.903 45.8809 214.871 45.8809C214.679 45.9129 214.487 45.9289 214.295 45.9449C214.247 45.9449 214.199 45.9449 214.151 45.9449C213.943 45.9609 213.735 45.9609 213.511 45.9609H209.815C207.815 45.9929 206.279 45.6249 205.239 44.8569C205.191 44.8249 205.143 44.7769 205.095 44.7449C205.015 44.6809 204.919 44.6009 204.839 44.5369C204.775 44.4729 204.711 44.3929 204.647 44.3289C204.599 44.2649 204.551 44.2169 204.503 44.1689C204.439 44.0729 204.375 43.9769 204.311 43.8809C204.279 43.8329 204.247 43.8009 204.215 43.7529C204.151 43.6409 204.103 43.5289 204.039 43.4009C204.023 43.3689 204.007 43.3369 203.991 43.3049C203.943 43.1609 203.895 43.0329 203.847 42.8889C203.831 42.8569 203.831 42.8409 203.815 42.8089C203.783 42.6489 203.735 42.5049 203.719 42.3289C203.703 42.3129 203.703 42.2969 203.703 42.2809C203.671 42.1049 203.655 41.9289 203.639 41.7529ZM235.441 41.7529V41.9609C235.441 41.9769 235.441 41.9929 235.441 42.0249V42.9849C235.425 43.1129 235.425 43.2409 235.393 43.3529C235.393 43.3689 235.393 43.3849 235.393 43.4009C235.377 43.5129 235.345 43.6249 235.313 43.7369C235.313 43.7529 235.313 43.7689 235.297 43.7849C235.265 43.8809 235.233 43.9929 235.201 44.0729C235.185 44.1049 235.169 44.1209 235.153 44.1529C235.121 44.2329 235.073 44.3129 235.041 44.3929C235.009 44.4249 234.993 44.4569 234.977 44.4889C234.929 44.5529 234.881 44.6329 234.833 44.6809C234.801 44.7289 234.769 44.7609 234.737 44.8089C234.689 44.8569 234.641 44.9049 234.593 44.9529C234.545 45.0009 234.481 45.0489 234.417 45.0969C234.385 45.1289 234.353 45.1609 234.321 45.1769C233.585 45.7209 232.497 45.9769 231.089 45.9609H224.945C223.521 45.9769 222.433 45.7209 221.697 45.1769C221.665 45.1609 221.633 45.1289 221.601 45.0969C221.537 45.0489 221.473 45.0009 221.425 44.9529C221.377 44.9049 221.329 44.8569 221.281 44.8089C221.249 44.7609 221.217 44.7289 221.185 44.6809C221.137 44.6329 221.089 44.5529 221.041 44.4889C221.025 44.4569 221.009 44.4249 220.993 44.3929C220.945 44.3129 220.897 44.2329 220.865 44.1529C220.849 44.1209 220.833 44.1049 220.817 44.0729C220.785 43.9929 220.753 43.8809 220.721 43.7849C220.721 43.7689 220.705 43.7529 220.705 43.7369C220.673 43.6249 220.641 43.5129 220.625 43.4009C220.625 43.3849 220.625 43.3689 220.625 43.3529C220.593 43.2409 220.593 43.1129 220.577 42.9849C220.577 42.9689 220.577 42.9689 220.577 42.9689V41.9289H223.761V42.2649C223.761 42.3129 223.777 42.3769 223.777 42.4249V42.4409C223.793 42.4889 223.793 42.5369 223.809 42.5849L223.825 42.6009C223.825 42.6489 223.841 42.6809 223.857 42.7289C223.873 42.7289 223.873 42.7449 223.873 42.7449C223.889 42.7929 223.905 42.8249 223.937 42.8569C223.937 42.8729 223.953 42.8729 223.953 42.8889C223.969 42.9209 223.985 42.9529 224.017 42.9689C224.033 42.9849 224.049 43.0009 224.049 43.0169C224.081 43.0489 224.097 43.0649 224.113 43.0809C224.129 43.1129 224.161 43.1289 224.193 43.1449C224.193 43.1609 224.209 43.1769 224.225 43.1769C224.529 43.4009 224.977 43.5129 225.569 43.5129C225.569 43.5129 226.017 43.4969 226.017 43.5129C226.017 43.5129 230.001 43.5129 230.001 43.4969C230.001 43.4969 230.449 43.5129 230.449 43.4969C230.945 43.5129 231.505 43.4489 231.889 43.0969C232.097 42.9049 232.241 42.6329 232.225 42.3609C232.225 42.3289 232.225 42.2969 232.225 42.2649C232.177 41.9609 231.969 41.6889 231.713 41.5129C231.361 41.2889 230.929 41.2409 230.513 41.2409H230.001H225.201H224.785C224.625 41.2409 224.481 41.2409 224.337 41.2249C224.305 41.2249 224.273 41.2249 224.241 41.2249C224.097 41.2089 223.953 41.2089 223.825 41.1929C223.809 41.1929 223.793 41.1769 223.761 41.1769C223.345 41.1289 222.961 41.0489 222.625 40.9209C222.609 40.9209 222.593 40.9209 222.561 40.9049C222.465 40.8729 222.369 40.8249 222.273 40.7929C222.241 40.7769 222.225 40.7609 222.193 40.7609C221.793 40.5529 221.457 40.2969 221.201 39.9929C221.185 39.9769 221.169 39.9609 221.153 39.9289C221.105 39.8649 221.057 39.7849 221.009 39.7049C220.993 39.6889 220.993 39.6729 220.977 39.6569C220.833 39.4009 220.721 39.1129 220.657 38.7929C220.641 38.7769 220.641 38.7609 220.641 38.7289C220.625 38.6329 220.609 38.5369 220.593 38.4249C220.593 38.3929 220.593 38.3769 220.593 38.3449C220.577 38.3129 220.577 38.2969 220.577 38.2649V38.0889C220.577 38.0569 220.577 38.0409 220.577 38.0089V37.0329C220.593 36.9049 220.609 36.7929 220.625 36.6649C220.625 36.6489 220.625 36.6329 220.625 36.6329C220.641 36.5049 220.673 36.3929 220.705 36.2969C220.705 36.2649 220.721 36.2489 220.721 36.2329C220.753 36.1369 220.785 36.0409 220.833 35.9449C220.833 35.9129 220.849 35.8969 220.865 35.8649C220.897 35.7849 220.945 35.7049 220.993 35.6249C221.009 35.5929 221.025 35.5609 221.041 35.5289C221.089 35.4649 221.137 35.4009 221.185 35.3369C221.217 35.2889 221.249 35.2569 221.297 35.2249C221.329 35.1769 221.377 35.1129 221.425 35.0809C221.473 35.0169 221.537 34.9689 221.601 34.9209C221.633 34.8889 221.665 34.8729 221.697 34.8409C222.433 34.3129 223.521 34.0409 224.945 34.0569H231.089C232.497 34.0409 233.585 34.3129 234.321 34.8409C234.353 34.8729 234.385 34.8889 234.417 34.9209C234.481 34.9689 234.545 35.0169 234.593 35.0809C234.641 35.1129 234.689 35.1769 234.737 35.2249C234.769 35.2569 234.801 35.2889 234.833 35.3369C234.881 35.4009 234.929 35.4649 234.977 35.5289C234.993 35.5609 235.009 35.5929 235.041 35.6249C235.089 35.7049 235.121 35.7849 235.169 35.8649C235.169 35.8969 235.185 35.9129 235.201 35.9449C235.233 36.0409 235.265 36.1369 235.297 36.2329C235.313 36.2489 235.313 36.2649 235.313 36.2969C235.345 36.3929 235.377 36.5049 235.393 36.6329C235.393 36.6329 235.393 36.6489 235.393 36.6649C235.425 36.7929 235.425 36.9209 235.441 37.0489V38.1049H232.257C232.257 38.1049 232.257 37.7689 232.257 37.7529C232.257 37.7049 232.257 37.6569 232.241 37.6089C232.241 37.5929 232.241 37.5929 232.241 37.5769C232.225 37.5289 232.225 37.4969 232.209 37.4489C232.209 37.4329 232.209 37.4329 232.193 37.4169C232.193 37.3849 232.177 37.3369 232.161 37.3049C232.145 37.2889 232.145 37.2729 232.145 37.2729C232.129 37.2409 232.113 37.2089 232.097 37.1609C232.081 37.1609 232.081 37.1449 232.065 37.1289C232.049 37.0969 232.033 37.0809 232.001 37.0489C232.001 37.0329 231.985 37.0169 231.969 37.0009C231.953 36.9849 231.921 36.9529 231.905 36.9369C231.889 36.9209 231.857 36.8889 231.841 36.8729C231.825 36.8729 231.809 36.8569 231.793 36.8409C231.489 36.6169 231.041 36.5049 230.449 36.5209H230.001H226.017H225.569C224.993 36.5049 224.257 36.5849 223.937 37.1449C223.777 37.4169 223.761 37.7529 223.889 38.0409C224.097 38.5369 224.593 38.6969 225.089 38.7609H225.105C225.169 38.7609 225.217 38.7769 225.281 38.7769C225.297 38.7769 225.313 38.7769 225.329 38.7769C225.377 38.7769 225.441 38.7769 225.505 38.7769H226.017H230.001H231.233C231.393 38.7769 231.537 38.7929 231.681 38.7929C231.713 38.7929 231.745 38.7929 231.777 38.8089C231.921 38.8089 232.065 38.8249 232.193 38.8409C232.209 38.8409 232.225 38.8409 232.257 38.8409C232.673 38.8889 233.057 38.9849 233.393 39.0969C233.409 39.0969 233.425 39.1129 233.457 39.1129C233.553 39.1449 233.649 39.1929 233.745 39.2409C233.777 39.2409 233.793 39.2569 233.825 39.2729C234.225 39.4649 234.561 39.7209 234.817 40.0249C234.833 40.0569 234.849 40.0729 234.865 40.0889C234.913 40.1689 234.961 40.2329 235.009 40.3129C235.025 40.3289 235.025 40.3449 235.041 40.3609C235.185 40.6169 235.297 40.9049 235.361 41.2249C235.377 41.2409 235.377 41.2729 235.377 41.2889C235.393 41.3849 235.409 41.4969 235.425 41.5929C235.425 41.6249 235.425 41.6569 235.425 41.6889C235.441 41.7049 235.441 41.7369 235.441 41.7529Z" fill="#FD2026"/>
</g>
<defs>
<clipPath id="clip0_108_2">
<rect width="236" height="60" fill="white"/>
</clipPath>
</defs>
</svg>
