<svg width="191" height="12" viewBox="0 0 191 12" fill="none" xmlns="http://www.w3.org/2000/svg">
<path d="M4.544 7.24094V11.9609H0.928V0.0569372H14.592V2.52094H4.544V4.77694H13.824V7.24094H8.864H4.544ZM19.3878 11.9609H15.7718V0.0569372H19.3878V11.9609ZM29.0481 9.54494L34.1361 0.0569372H37.9761L31.5921 11.9609H26.5041L20.1361 0.0569372H23.9601L29.0481 9.54494ZM52.3889 11.9609H38.7249V0.0569372H52.3889V2.52094H42.3409V4.77694H51.6209V7.24094H46.6609H42.3409V9.49694H52.3889V11.9609ZM66.6065 11.9609V11.9769H62.9905V0.0569372H66.6065H72.4785C72.6865 0.0569372 72.8945 0.072937 73.1025 0.072937C73.1505 0.072937 73.1985 0.0889368 73.2465 0.0889368C73.4385 0.0889368 73.6465 0.104937 73.8225 0.136937C73.8545 0.136937 73.8865 0.136937 73.9025 0.136937C74.4945 0.216937 75.0385 0.328937 75.5185 0.504937C75.5505 0.504937 75.5825 0.520937 75.6145 0.536937C75.7585 0.584937 75.8865 0.632937 76.0305 0.696937C76.0625 0.712937 76.0945 0.728937 76.1265 0.744937C76.7025 1.01694 77.1665 1.38494 77.5345 1.83294C77.5505 1.84894 77.5825 1.88094 77.5985 1.91294C77.6785 2.00894 77.7425 2.12094 77.8225 2.23294C77.8385 2.24894 77.8385 2.26494 77.8545 2.29694C78.0625 2.66494 78.2225 3.06494 78.3185 3.51294C78.3185 3.54494 78.3345 3.57694 78.3345 3.60894C78.3665 3.75294 78.3825 3.89694 78.3985 4.04094C78.3985 4.08894 78.4145 4.12094 78.4145 4.16894C78.4305 4.31294 78.4305 4.47294 78.4305 4.63294L78.4145 7.72094C78.4145 7.73694 78.4145 7.73694 78.4145 7.75294C78.4145 7.92894 78.3825 8.10494 78.3665 8.28094C78.3505 8.29694 78.3505 8.31294 78.3505 8.32894C78.3185 8.50494 78.2865 8.64894 78.2385 8.80894C78.2385 8.84094 78.2225 8.85694 78.2225 8.88894C78.1745 9.03294 78.1265 9.16094 78.0785 9.30494C78.0625 9.33694 78.0465 9.36894 78.0305 9.40094C77.9665 9.52894 77.9025 9.64094 77.8385 9.75294C77.8225 9.80094 77.7905 9.83294 77.7585 9.88094C77.6945 9.97694 77.6305 10.0729 77.5665 10.1689C77.5185 10.2169 77.4705 10.2649 77.4225 10.3289C77.3585 10.3929 77.2945 10.4729 77.2145 10.5369C77.1505 10.6009 77.0545 10.6809 76.9745 10.7449C76.9265 10.7769 76.8785 10.8249 76.8305 10.8569C75.7905 11.6249 74.2545 11.9929 72.2545 11.9609H66.6065ZM71.6465 2.85694H66.6065V9.16094H71.5345C72.5905 9.17694 73.4065 8.98494 73.9505 8.58494C73.9825 8.55294 74.0145 8.53694 74.0305 8.52094C74.0785 8.48894 74.1265 8.44094 74.1585 8.40894C74.2065 8.37694 74.2385 8.32894 74.2705 8.29694C74.2865 8.26494 74.3185 8.23294 74.3505 8.21694C74.3825 8.16894 74.4145 8.10494 74.4465 8.05694C74.4625 8.04094 74.4785 8.00894 74.4945 7.99294C74.5265 7.92894 74.5585 7.86494 74.5905 7.80094C74.6065 7.78494 74.6065 7.76894 74.6225 7.75294C74.6385 7.68894 74.6705 7.60894 74.7025 7.52894C74.7025 7.51294 74.7025 7.51294 74.7025 7.49694C74.7345 7.41694 74.7505 7.32094 74.7665 7.24094C74.7665 7.22494 74.7665 7.22494 74.7665 7.20894C74.7825 7.11294 74.7985 7.03294 74.7985 6.92094L74.8145 5.28894C74.8145 5.19294 74.7985 5.11294 74.7985 5.03294C74.7985 5.00094 74.7985 4.98494 74.7825 4.96894C74.7825 4.88894 74.7665 4.80894 74.7505 4.72894C74.7505 4.71294 74.7505 4.69694 74.7505 4.68094C74.7025 4.44094 74.6065 4.23294 74.4945 4.04094C74.4945 4.02494 74.4945 4.00894 74.4785 4.00894C74.4465 3.94494 74.3985 3.88094 74.3665 3.83294C74.3505 3.81694 74.3345 3.80094 74.3345 3.78494C74.1425 3.56094 73.8865 3.36894 73.5825 3.22494C73.5665 3.20894 73.5505 3.20894 73.5345 3.19294C73.4545 3.16094 73.3905 3.12894 73.3105 3.09694C73.2945 3.09694 73.2785 3.09694 73.2625 3.08094C73.0065 3.00094 72.7185 2.93694 72.3985 2.90494C72.3985 2.90494 72.3825 2.88894 72.3665 2.88894C72.2705 2.88894 72.1585 2.87294 72.0625 2.87294C72.0305 2.87294 71.9985 2.87294 71.9825 2.85694C71.8705 2.85694 71.7585 2.85694 71.6465 2.85694ZM79.6236 4.39294C79.6236 4.36094 79.6236 4.32894 79.6236 4.31294C79.6076 4.20094 79.6076 4.08894 79.6076 3.97694V0.0569372H82.7916V3.40094C82.7916 3.44894 82.7916 3.49694 82.7916 3.54494C82.7916 3.56094 82.7916 3.56094 82.7916 3.57694C82.8076 3.62494 82.8076 3.67294 82.8236 3.70494C82.8236 3.72094 82.8236 3.72094 82.8236 3.73694C82.8556 3.86494 82.8876 3.99294 82.9516 4.08894C82.9676 4.10494 82.9676 4.10494 82.9676 4.10494C82.9836 4.13694 83.0156 4.16894 83.0316 4.20094C83.0316 4.21694 83.0476 4.21694 83.0476 4.23294C83.1596 4.36094 83.3036 4.45694 83.4636 4.55294C83.4796 4.55294 83.4796 4.55294 83.4956 4.55294C83.5276 4.58494 83.5756 4.60094 83.6236 4.61694H83.6396C83.7836 4.66494 83.9436 4.69694 84.1196 4.72894H84.1356C84.1996 4.72894 84.2476 4.74494 84.3116 4.74494C84.3276 4.74494 84.3436 4.74494 84.3596 4.74494C84.4076 4.74494 84.4716 4.74494 84.5356 4.74494H85.0476H91.2716V0.0569372H94.4876V5.81694H94.4716L94.4876 8.72894C94.4876 8.84094 94.4716 8.95294 94.4716 9.06494C94.4556 9.09694 94.4556 9.12894 94.4556 9.14494C94.4396 9.25694 94.4236 9.35294 94.4076 9.46494C94.4076 9.48094 94.4076 9.49694 94.3916 9.51294C94.3276 9.83294 94.2156 10.1209 94.0716 10.3929C94.0716 10.4089 94.0556 10.4249 94.0396 10.4249C93.9916 10.5049 93.9436 10.5849 93.8956 10.6649C93.8796 10.6809 93.8636 10.6969 93.8476 10.7129C93.5916 11.0329 93.2556 11.2889 92.8556 11.4809C92.8236 11.4969 92.8076 11.4969 92.7756 11.5129C92.6796 11.5609 92.5836 11.5929 92.4876 11.6409C92.4716 11.6409 92.4396 11.6409 92.4236 11.6569C92.0876 11.7689 91.7036 11.8489 91.2876 11.9129C91.2556 11.9129 91.2396 11.9129 91.2236 11.9129C91.0956 11.9289 90.9516 11.9449 90.8076 11.9449C90.7756 11.9449 90.7436 11.9449 90.7116 11.9449C90.5676 11.9609 90.4236 11.9609 90.2636 11.9609H80.0396V9.51294H89.0316H89.5436C89.6076 9.51294 89.6716 9.49694 89.7196 9.49694C89.7356 9.49694 89.7516 9.49694 89.7676 9.49694C89.8316 9.49694 89.8796 9.49694 89.9436 9.48094H89.9596C90.1356 9.46494 90.2956 9.43294 90.4396 9.36894H90.4556C90.5036 9.35294 90.5516 9.33694 90.5836 9.32094C90.5996 9.32094 90.5996 9.30494 90.6156 9.30494C90.7916 9.22494 90.9196 9.11294 91.0316 8.98494L91.0476 8.96894C91.0636 8.93694 91.0956 8.90494 91.1116 8.87294C91.1116 8.85694 91.1116 8.85694 91.1276 8.85694C91.1916 8.74494 91.2236 8.61694 91.2556 8.48894C91.2556 8.48894 91.2556 8.47294 91.2716 8.47294C91.2716 8.42494 91.2716 8.37694 91.2876 8.32894C91.2876 8.32894 91.2876 8.31294 91.2876 8.29694C91.2876 8.24894 91.2876 8.21694 91.2876 8.16894V7.20894H83.8156C83.6556 7.20894 83.5116 7.19294 83.3676 7.19294C83.3356 7.19294 83.3036 7.19294 83.2716 7.19294C83.1276 7.17694 82.9836 7.17694 82.8556 7.16094C82.8396 7.14494 82.8236 7.14494 82.7916 7.14494C82.3756 7.09694 81.9916 7.01694 81.6556 6.88894C81.6396 6.88894 81.6236 6.88894 81.5916 6.87294C81.4956 6.84094 81.3996 6.79294 81.3036 6.76094C81.2716 6.74494 81.2556 6.72894 81.2236 6.71294C80.8236 6.52094 80.4876 6.26494 80.2316 5.96094C80.2156 5.94494 80.1996 5.91294 80.1836 5.89694C80.1356 5.83294 80.0876 5.75294 80.0396 5.67294C80.0236 5.65694 80.0236 5.64094 80.0076 5.62494C79.8636 5.36894 79.7516 5.08094 79.6876 4.76094C79.6716 4.74494 79.6716 4.72894 79.6716 4.69694C79.6556 4.60094 79.6396 4.50494 79.6236 4.39294ZM109.408 10.2489V0.0569372H113.04V11.9609H109.408H106.72L99.8721 1.76894V11.9609H96.2561V0.0569372H102.56L109.408 10.2489ZM118.768 9.80094L117.6 11.9609H113.776L120.144 0.0569372H125.232L131.616 11.9609H127.776L126.608 9.80094H118.768ZM122.688 2.47294L120.08 7.33694H125.296L122.688 2.47294ZM145.806 0.0569372H151.63V11.9609H148.014V3.12894L143.902 10.7769L143.278 11.9609H141.982H140.702L140.062 10.7769L135.966 3.12894V11.9609H132.35V0.0569372H138.158L141.982 7.19294L145.806 0.0569372ZM157.122 11.9609H153.506V0.0569372H157.122V11.9609ZM158.639 7.75294C158.639 7.73694 158.639 7.73694 158.639 7.72094V4.63294C158.639 4.47294 158.639 4.31294 158.655 4.16894C158.655 4.12094 158.655 4.08894 158.671 4.04094C158.687 3.89694 158.703 3.75294 158.735 3.60894C158.735 3.57694 158.735 3.54494 158.751 3.51294C158.847 3.06494 158.991 2.66494 159.215 2.29694C159.215 2.26494 159.231 2.24894 159.247 2.23294C159.311 2.12094 159.391 2.00894 159.471 1.91294C159.487 1.88094 159.519 1.84894 159.535 1.83294C159.903 1.38494 160.367 1.01694 160.943 0.744937C160.975 0.728937 161.007 0.712937 161.039 0.696937C161.167 0.632937 161.311 0.584937 161.455 0.536937C161.487 0.520937 161.519 0.504937 161.551 0.504937C162.031 0.328937 162.559 0.216937 163.167 0.136937C163.183 0.136937 163.215 0.136937 163.231 0.136937C163.423 0.104937 163.615 0.0889368 163.823 0.0889368C163.871 0.0889368 163.919 0.072937 163.967 0.072937C164.175 0.072937 164.383 0.0569372 164.591 0.0569372H168.303C170.303 0.0409365 171.839 0.408937 172.879 1.16094C172.927 1.19294 172.975 1.24094 173.023 1.27294C173.103 1.35294 173.183 1.41694 173.263 1.49694C173.343 1.56094 173.391 1.62494 173.455 1.70494C173.503 1.75294 173.567 1.80094 173.599 1.86494C173.679 1.94494 173.743 2.04094 173.807 2.13694C173.839 2.18494 173.871 2.23294 173.887 2.26494C173.951 2.37694 174.015 2.50494 174.062 2.61694C174.079 2.64894 174.095 2.69694 174.111 2.72894C174.175 2.85694 174.222 3.00094 174.271 3.14494C174.271 3.16094 174.287 3.19294 174.287 3.20894C174.335 3.36894 174.367 3.52894 174.399 3.68894C174.399 3.70494 174.399 3.72094 174.399 3.75294C174.431 3.91294 174.447 4.08894 174.463 4.28094V4.29694V4.77694H170.815C170.799 4.69694 170.783 4.61694 170.751 4.52094C170.751 4.52094 170.751 4.50494 170.735 4.48894C170.719 4.40894 170.687 4.34494 170.655 4.26494C170.655 4.24894 170.639 4.23294 170.639 4.21694C170.607 4.15294 170.575 4.08894 170.543 4.02494C170.527 4.00894 170.511 3.97694 170.495 3.96094C170.463 3.91294 170.431 3.86494 170.383 3.81694C170.367 3.78494 170.335 3.75294 170.319 3.72094C170.287 3.68894 170.255 3.65694 170.207 3.60894C170.175 3.57694 170.127 3.54494 170.079 3.49694C170.047 3.48094 170.031 3.46494 169.999 3.43294C169.455 3.03294 168.639 2.84094 167.567 2.85694H165.423C165.311 2.85694 165.199 2.85694 165.087 2.87294C165.055 2.87294 165.039 2.87294 165.007 2.87294C164.911 2.87294 164.799 2.88894 164.703 2.88894C164.687 2.88894 164.671 2.90494 164.655 2.90494C164.335 2.93694 164.063 3.00094 163.807 3.09694C163.791 3.09694 163.775 3.09694 163.759 3.09694C163.679 3.12894 163.599 3.16094 163.535 3.19294C163.519 3.20894 163.503 3.20894 163.487 3.22494C163.183 3.36894 162.927 3.56094 162.735 3.78494C162.719 3.80094 162.719 3.81694 162.703 3.83294C162.655 3.89694 162.623 3.94494 162.591 4.00894C162.575 4.00894 162.575 4.02494 162.559 4.04094C162.447 4.23294 162.367 4.45694 162.319 4.69694C162.319 4.69694 162.319 4.71294 162.303 4.72894C162.286 4.80894 162.286 4.88894 162.271 4.96894C162.271 4.98494 162.271 5.01694 162.271 5.03294C162.271 5.11294 162.255 5.19294 162.255 5.28894L162.271 6.92094C162.271 6.92094 162.271 6.92094 162.271 6.93694C162.271 7.03294 162.286 7.11294 162.303 7.20894C162.303 7.22494 162.303 7.22494 162.303 7.24094C162.319 7.32094 162.335 7.41694 162.351 7.49694C162.367 7.51294 162.367 7.52894 162.367 7.52894C162.399 7.60894 162.415 7.68894 162.447 7.75294C162.463 7.76894 162.463 7.78494 162.479 7.80094C162.511 7.86494 162.527 7.92894 162.575 7.99294C162.591 8.00894 162.607 8.04094 162.623 8.05694C162.655 8.10494 162.687 8.16894 162.719 8.21694C162.751 8.23294 162.766 8.26494 162.799 8.29694C162.831 8.32894 162.863 8.37694 162.895 8.40894C162.943 8.44094 162.991 8.48894 163.039 8.52094C163.055 8.53694 163.087 8.56894 163.103 8.58494C163.663 8.98494 164.479 9.17694 165.535 9.16094H167.695C167.807 9.16094 167.919 9.16094 168.031 9.16094C168.047 9.16094 168.079 9.16094 168.095 9.14494C168.207 9.14494 168.319 9.14494 168.415 9.12894C168.431 9.12894 168.431 9.12894 168.447 9.12894C168.767 9.08094 169.055 9.01694 169.311 8.93694C169.327 8.92094 169.343 8.92094 169.359 8.92094C169.439 8.88894 169.503 8.85694 169.583 8.82494C169.599 8.82494 169.615 8.80894 169.631 8.80894C169.935 8.64894 170.191 8.45694 170.383 8.23294C170.383 8.21694 170.399 8.20094 170.415 8.18494C170.447 8.13694 170.495 8.07294 170.527 8.00894C170.527 8.00894 170.543 7.99294 170.543 7.97694C170.655 7.78494 170.735 7.57694 170.799 7.33694C170.799 7.32094 170.799 7.30494 170.799 7.28894C170.799 7.27294 170.799 7.25694 170.815 7.24094H174.479V7.38494C174.479 7.54494 174.463 7.70494 174.463 7.86494C174.447 7.89694 174.447 7.94494 174.447 7.97694C174.431 8.13694 174.415 8.28094 174.383 8.40894C174.383 8.44094 174.367 8.47294 174.367 8.50494C174.271 8.95294 174.111 9.36894 173.903 9.72094C173.887 9.75294 173.871 9.76894 173.871 9.80094C173.791 9.89694 173.727 10.0089 173.647 10.1209C173.615 10.1369 173.599 10.1689 173.583 10.2009C173.215 10.6329 172.751 11.0009 172.175 11.2729C172.143 11.2889 172.111 11.3049 172.079 11.3209C171.935 11.3849 171.807 11.4329 171.647 11.4969C171.631 11.4969 171.599 11.5129 171.567 11.5289C171.087 11.6889 170.543 11.8009 169.951 11.8809C169.919 11.8809 169.903 11.8809 169.871 11.8809C169.679 11.9129 169.487 11.9289 169.295 11.9449C169.247 11.9449 169.199 11.9449 169.151 11.9449C168.943 11.9609 168.735 11.9609 168.511 11.9609H164.815C162.815 11.9929 161.279 11.6249 160.239 10.8569C160.191 10.8249 160.143 10.7769 160.095 10.7449C160.015 10.6809 159.919 10.6009 159.839 10.5369C159.775 10.4729 159.711 10.3929 159.647 10.3289C159.599 10.2649 159.551 10.2169 159.503 10.1689C159.439 10.0729 159.375 9.97694 159.311 9.88094C159.279 9.83294 159.247 9.80094 159.215 9.75294C159.151 9.64094 159.103 9.52894 159.039 9.40094C159.023 9.36894 159.007 9.33694 158.991 9.30494C158.943 9.16094 158.895 9.03294 158.847 8.88894C158.831 8.85694 158.831 8.84094 158.815 8.80894C158.783 8.64894 158.735 8.50494 158.719 8.32894C158.703 8.31294 158.703 8.29694 158.703 8.28094C158.671 8.10494 158.655 7.92894 158.639 7.75294ZM190.441 7.75294V7.96094C190.441 7.97694 190.441 7.99294 190.441 8.02494V8.98494C190.425 9.11294 190.425 9.24094 190.393 9.35294C190.393 9.36894 190.393 9.38494 190.393 9.40094C190.377 9.51294 190.345 9.62494 190.313 9.73694C190.313 9.75294 190.313 9.76894 190.297 9.78494C190.265 9.88094 190.233 9.99294 190.201 10.0729C190.185 10.1049 190.169 10.1209 190.153 10.1529C190.121 10.2329 190.073 10.3129 190.041 10.3929C190.009 10.4249 189.993 10.4569 189.977 10.4889C189.929 10.5529 189.881 10.6329 189.833 10.6809C189.801 10.7289 189.769 10.7609 189.737 10.8089C189.689 10.8569 189.641 10.9049 189.593 10.9529C189.545 11.0009 189.481 11.0489 189.417 11.0969C189.385 11.1289 189.353 11.1609 189.321 11.1769C188.585 11.7209 187.497 11.9769 186.089 11.9609H179.945C178.521 11.9769 177.433 11.7209 176.697 11.1769C176.665 11.1609 176.633 11.1289 176.601 11.0969C176.537 11.0489 176.473 11.0009 176.425 10.9529C176.377 10.9049 176.329 10.8569 176.281 10.8089C176.249 10.7609 176.217 10.7289 176.185 10.6809C176.137 10.6329 176.089 10.5529 176.041 10.4889C176.025 10.4569 176.009 10.4249 175.993 10.3929C175.945 10.3129 175.897 10.2329 175.865 10.1529C175.849 10.1209 175.833 10.1049 175.817 10.0729C175.785 9.99294 175.753 9.88094 175.721 9.78494C175.721 9.76894 175.705 9.75294 175.705 9.73694C175.673 9.62494 175.641 9.51294 175.625 9.40094C175.625 9.38494 175.625 9.36894 175.625 9.35294C175.593 9.24094 175.593 9.11294 175.577 8.98494C175.577 8.96894 175.577 8.96894 175.577 8.96894V7.92894H178.761V8.26494C178.761 8.31294 178.777 8.37694 178.777 8.42494V8.44094C178.793 8.48894 178.793 8.53694 178.809 8.58494L178.825 8.60094C178.825 8.64894 178.841 8.68094 178.857 8.72894C178.873 8.72894 178.873 8.74494 178.873 8.74494C178.889 8.79294 178.905 8.82494 178.937 8.85694C178.937 8.87294 178.953 8.87294 178.953 8.88894C178.969 8.92094 178.985 8.95294 179.017 8.96894C179.033 8.98494 179.049 9.00094 179.049 9.01694C179.081 9.04894 179.097 9.06494 179.113 9.08094C179.129 9.11294 179.161 9.12894 179.193 9.14494C179.193 9.16094 179.209 9.17694 179.225 9.17694C179.529 9.40094 179.977 9.51294 180.569 9.51294C180.569 9.51294 181.017 9.49694 181.017 9.51294C181.017 9.51294 185.001 9.51294 185.001 9.49694C185.001 9.49694 185.449 9.51294 185.449 9.49694C185.945 9.51294 186.505 9.44894 186.889 9.09694C187.097 8.90494 187.241 8.63294 187.225 8.36094C187.225 8.32894 187.225 8.29694 187.225 8.26494C187.177 7.96094 186.969 7.68894 186.713 7.51294C186.361 7.28894 185.929 7.24094 185.513 7.24094H185.001H180.201H179.785C179.625 7.24094 179.481 7.24094 179.337 7.22494C179.305 7.22494 179.273 7.22494 179.241 7.22494C179.097 7.20894 178.953 7.20894 178.825 7.19294C178.809 7.19294 178.793 7.17694 178.761 7.17694C178.345 7.12894 177.961 7.04894 177.625 6.92094C177.609 6.92094 177.593 6.92094 177.561 6.90494C177.465 6.87294 177.369 6.82494 177.273 6.79294C177.241 6.77694 177.225 6.76094 177.193 6.76094C176.793 6.55294 176.457 6.29694 176.201 5.99294C176.185 5.97694 176.169 5.96094 176.153 5.92894C176.105 5.86494 176.057 5.78494 176.009 5.70494C175.993 5.68894 175.993 5.67294 175.977 5.65694C175.833 5.40094 175.721 5.11294 175.657 4.79294C175.641 4.77694 175.641 4.76094 175.641 4.72894C175.625 4.63294 175.609 4.53694 175.593 4.42494C175.593 4.39294 175.593 4.37694 175.593 4.34494C175.577 4.31294 175.577 4.29694 175.577 4.26494V4.08894C175.577 4.05694 175.577 4.04094 175.577 4.00894V3.03294C175.593 2.90494 175.609 2.79294 175.625 2.66494C175.625 2.64894 175.625 2.63294 175.625 2.63294C175.641 2.50494 175.673 2.39294 175.705 2.29694C175.705 2.26494 175.721 2.24894 175.721 2.23294C175.753 2.13694 175.785 2.04094 175.833 1.94494C175.833 1.91294 175.849 1.89694 175.865 1.86494C175.897 1.78494 175.945 1.70494 175.993 1.62494C176.009 1.59294 176.025 1.56094 176.041 1.52894C176.089 1.46494 176.137 1.40094 176.185 1.33694C176.217 1.28894 176.249 1.25694 176.297 1.22494C176.329 1.17694 176.377 1.11294 176.425 1.08094C176.473 1.01694 176.537 0.968937 176.601 0.920937C176.633 0.888937 176.665 0.872937 176.697 0.840937C177.433 0.312937 178.521 0.0409365 179.945 0.0569372H186.089C187.497 0.0409365 188.585 0.312937 189.321 0.840937C189.353 0.872937 189.385 0.888937 189.417 0.920937C189.481 0.968937 189.545 1.01694 189.593 1.08094C189.641 1.11294 189.689 1.17694 189.737 1.22494C189.769 1.25694 189.801 1.28894 189.833 1.33694C189.881 1.40094 189.929 1.46494 189.977 1.52894C189.993 1.56094 190.009 1.59294 190.041 1.62494C190.089 1.70494 190.121 1.78494 190.169 1.86494C190.169 1.89694 190.185 1.91294 190.201 1.94494C190.233 2.04094 190.265 2.13694 190.297 2.23294C190.313 2.24894 190.313 2.26494 190.313 2.29694C190.345 2.39294 190.377 2.50494 190.393 2.63294C190.393 2.63294 190.393 2.64894 190.393 2.66494C190.425 2.79294 190.425 2.92094 190.441 3.04894V4.10494H187.257C187.257 4.10494 187.257 3.76894 187.257 3.75294C187.257 3.70494 187.257 3.65694 187.241 3.60894C187.241 3.59294 187.241 3.59294 187.241 3.57694C187.225 3.52894 187.225 3.49694 187.209 3.44894C187.209 3.43294 187.209 3.43294 187.193 3.41694C187.193 3.38494 187.177 3.33694 187.161 3.30494C187.145 3.28894 187.145 3.27294 187.145 3.27294C187.129 3.24094 187.113 3.20894 187.097 3.16094C187.081 3.16094 187.081 3.14494 187.065 3.12894C187.049 3.09694 187.033 3.08094 187.001 3.04894C187.001 3.03294 186.985 3.01694 186.969 3.00094C186.953 2.98494 186.921 2.95294 186.905 2.93694C186.889 2.92094 186.857 2.88894 186.841 2.87294C186.825 2.87294 186.809 2.85694 186.793 2.84094C186.489 2.61694 186.041 2.50494 185.449 2.52094H185.001H181.017H180.569C179.993 2.50494 179.257 2.58494 178.937 3.14494C178.777 3.41694 178.761 3.75294 178.889 4.04094C179.097 4.53694 179.593 4.69694 180.089 4.76094H180.105C180.169 4.76094 180.217 4.77694 180.281 4.77694C180.297 4.77694 180.313 4.77694 180.329 4.77694C180.377 4.77694 180.441 4.77694 180.505 4.77694H181.017H185.001H186.233C186.393 4.77694 186.537 4.79294 186.681 4.79294C186.713 4.79294 186.745 4.79294 186.777 4.80894C186.921 4.80894 187.065 4.82494 187.193 4.84094C187.209 4.84094 187.225 4.84094 187.257 4.84094C187.673 4.88894 188.057 4.98494 188.393 5.09694C188.409 5.09694 188.425 5.11294 188.457 5.11294C188.553 5.14494 188.649 5.19294 188.745 5.24094C188.777 5.24094 188.793 5.25694 188.825 5.27294C189.225 5.46494 189.561 5.72094 189.817 6.02494C189.833 6.05694 189.849 6.07294 189.865 6.08894C189.913 6.16894 189.961 6.23294 190.009 6.31294C190.025 6.32894 190.025 6.34494 190.041 6.36094C190.185 6.61694 190.297 6.90494 190.361 7.22494C190.377 7.24094 190.377 7.27294 190.377 7.28894C190.393 7.38494 190.409 7.49694 190.425 7.59294C190.425 7.62494 190.425 7.65694 190.425 7.68894C190.441 7.70494 190.441 7.73694 190.441 7.75294Z" fill="#FD2026"/>
</svg>
