<svg width="67" height="60" viewBox="0 0 67 60" fill="none" xmlns="http://www.w3.org/2000/svg">
<path d="M31.8612 0C31.8826 0 31.8612 0.086393 31.8184 0.238108C31.8184 0.238108 28.7229 9.18716 29.5015 12.2278C29.769 13.3193 30.8392 14.0989 32.5542 14.6215C34.2691 15.1441 36.5218 15.3948 39.3444 15.4644C45.011 15.6076 66.3665 15.7467 66.3665 15.7467C66.4649 15.7423 66.5636 15.7465 66.6608 15.7594C66.6929 15.7594 66.5939 15.7825 66.3691 15.7952C66.3691 15.7952 37.2068 17.5905 32.2679 18.446C29.0895 19.0023 25.5846 20.0179 22.6497 23.6C19.7147 27.1822 14.6474 33.038 16.9857 36.0322C17.3385 36.5318 17.9001 36.9197 18.5749 37.13C19.1473 37.2856 19.7462 37.3723 20.3514 37.3871C20.8041 37.4107 21.258 37.3585 21.6832 37.234C22.1084 37.1094 22.4952 36.9153 22.8182 36.6644C24.2583 35.5142 25.481 34.2071 26.4488 32.783C26.5398 32.6418 26.5986 32.5723 26.62 32.5723C26.6414 32.5723 26.62 32.6587 26.5719 32.8104C26.5719 32.8104 25.7532 34.9871 26.0635 36.7634C26.2053 37.5768 26.818 38.1984 27.9765 38.5524C28.5112 38.7069 29.0701 38.8033 29.6379 38.8389C31.9308 39.0159 35.9787 39.1676 35.9787 39.1676C36.0774 39.1684 36.1758 39.1755 36.273 39.1887C36.3025 39.1887 36.2035 39.2077 35.9787 39.2119C35.9787 39.2119 29.7449 39.351 27.5992 40.0548C24.9719 40.9124 23.5192 42.3916 20.9106 46.313C18.6579 49.7497 12.4401 58.9264 12.4401 58.9264C12.4008 59.0023 12.3476 59.0733 12.2823 59.1371C12.3039 59.0592 12.339 58.9841 12.3866 58.9137C12.3866 58.9137 19.2625 46.471 20.0652 44.1827C20.6966 42.4105 19.5889 41.6162 19.0244 41.26C18.4729 40.9104 17.7984 40.7027 17.0921 40.665C16.3857 40.6273 15.6818 40.7615 15.0755 41.0493C13.8662 41.6379 12.8367 42.4294 12.0602 43.3672C8.1086 47.8617 0.167874 58.9222 0.167874 58.9222C0.0715579 59.057 0.012698 59.1329 0.00199626 59.1202C-0.00870553 59.1076 0.0233998 59.0423 0.103663 58.8969C0.103663 58.8969 13.1786 35.6024 13.5933 34.7384C14.1284 33.6554 20.4745 23.1049 18.888 20.4962C17.9248 18.9201 16.6941 18.0709 15.0166 17.561C13.7492 17.2136 12.4332 16.9879 11.0971 16.8888C7.16149 16.4969 0.499629 16.0459 0.499629 16.0459C0.402432 16.0412 0.305835 16.0306 0.210681 16.0143C0.167874 16.0017 0.266866 15.9911 0.502305 15.9911C0.502305 15.9911 17.1917 15.8457 20.0331 14.6679C21.1996 14.1832 23.3961 13.0327 25.7023 9.73291C26.8448 8.09566 31.6927 0.210715 31.6927 0.210715C31.7818 0.0702382 31.838 0 31.8612 0Z" fill="#FD2026"/>
</svg>
